HIERARCHY
ROOT Hips
{
  OFFSET -125.086 92.215 135.881
  CHANNELS 6 Xposition Yposition Zposition Zrotation Xrotation Yrotation
  JOINT LeftUpLeg
  {
    OFFSET 8.64259 1.95398 -2.38835
    CHANNELS 3 Zrotation Xrotation Yrotation
    JOINT LeftLeg
    {
      OFFSET 43.7702 0 0
      CHANNELS 3 Zrotation Xrotation Yrotation
      JOINT LeftFoot
      {
        OFFSET 40.6238 0 0
        CHANNELS 3 Zrotation Xrotation Yrotation
        JOINT LeftToeBase
        {
          OFFSET 12.7242 0 0
          CHANNELS 3 Zrotation Xrotation Yrotation
          End Site
          {
            OFFSET 0 0 0
          }
        }
      }
    }
  }
  JOINT RightUpLeg
  {
    OFFSET -8.2249 1.95398 -2.59336
    CHANNELS 3 Zrotation Xrotation Yrotation
    JOINT RightLeg
    {
      OFFSET 43.5653 0 0
      CHANNELS 3 Zrotation Xrotation Yrotation
      JOINT RightFoot
      {
        OFFSET 40.6238 0 0
        CHANNELS 3 Zrotation Xrotation Yrotation
        JOINT RightToeBase
        {
          OFFSET 12.7242 0 0
          CHANNELS 3 Zrotation Xrotation Yrotation
          End Site
          {
            OFFSET 0 0 0
          }
        }
      }
    }
  }
  JOINT Spine
  {
    OFFSET 0.165834 0.87714 6.61349
    CHANNELS 3 Zrotation Xrotation Yrotation
    JOINT Spine1
    {
      OFFSET 7.38963 1.71661e-005 0
      CHANNELS 3 Zrotation Xrotation Yrotation
      JOINT Spine2
      {
        OFFSET 11.9445 1.14441e-005 0
        CHANNELS 3 Zrotation Xrotation Yrotation
        JOINT Spine3
        {
          OFFSET 14.7254 4.19617e-005 0
          CHANNELS 3 Zrotation Xrotation Yrotation
          JOINT Spine4
          {
            OFFSET 10.9679 0 0
            CHANNELS 3 Zrotation Xrotation Yrotation
            JOINT RightShoulder
            {
              OFFSET 2.46616 -1.6653 3.69651
              CHANNELS 3 Zrotation Xrotation Yrotation
              JOINT RightArm
              {
                OFFSET 13.0012 0 0
                CHANNELS 3 Zrotation Xrotation Yrotation
                JOINT RightForeArm
                {
                  OFFSET 28.7848 1.52588e-005 0
                  CHANNELS 3 Zrotation Xrotation Yrotation
                  JOINT RightHand
                  {
                    OFFSET 26.5688 1.52588e-005 0
                    CHANNELS 3 Zrotation Xrotation Yrotation
                    End Site
                    {
                      OFFSET 0 0 0
                    }
                  }
                }
              }
            }
            JOINT LeftShoulder
            {
              OFFSET 2.38034 -1.29275 -3.7523
              CHANNELS 3 Zrotation Xrotation Yrotation
              JOINT LeftArm
              {
                OFFSET 16.3182 6.10352e-005 0
                CHANNELS 3 Zrotation Xrotation Yrotation
                JOINT LeftForeArm
                {
                  OFFSET 27.0901 0 0
                  CHANNELS 3 Zrotation Xrotation Yrotation
                  JOINT LeftHand
                  {
                    OFFSET 24.5451 1.52588e-005 0
                    CHANNELS 3 Zrotation Xrotation Yrotation
                    End Site
                    {
                      OFFSET 0 0 0
                    }
                  }
                }
              }
            }
            JOINT Neck
            {
              OFFSET 5.0226 -0.0266342 0
              CHANNELS 3 Zrotation Xrotation Yrotation
              JOINT Head
              {
                OFFSET 6.69363 2.86102e-005 0
                CHANNELS 3 Zrotation Xrotation Yrotation
                End Site
                {
                  OFFSET 0 0 0
                }
              }
            }
          }
        }
      }
    }
  }
}
MOTION
Frames:	7
Frame Time:	0.0416667
37.7863 98.7196 -309.869 132.252 -87.7274 133.364 -176.205 0.205015 88.4266 -8.35867 17.6613 2.86249 58.9443 4.67587 10.1426 38.1076 -0.865973 2.05656 175.714 5.67807 89.7689 -19.05 6.47835 -0.0358723 61.2368 1.96682 17.8792 33.3349 -0.559452 -2.62496 1.69274 7.18073 -90.3018 12.5306 3.21925 -0.975668 0.863193 3.17319 -1.11653 -21.704 3.36348 0.0380356 -1.69136 3.36349 0.0380304 128.492 -48.184 -41.2085 15.5669 -11.0551 -31.0473 -164.071 -62.2822 -175.171 34.0193 -16.1806 -54.0292 -79.6182 -50.6191 94.192 -41.5251 -10.0315 -18.685 17.6503 71.4894 -15.7944 -6.47576 0.0421287 -8.07203 2.26563 -2.824 -4.2414 2.25922 -1.67953 8.22261 
37.7798 98.7232 -309.914 128.844 -87.6018 129.977 -176.18 0.235368 88.4512 -8.32571 17.9205 2.86822 59.0495 4.7172 10.182 37.5909 -0.831916 2.06947 175.581 5.71396 89.7231 -19.0899 6.76508 0.108681 61.2742 1.84562 18.0708 33.1281 -0.528906 -2.5159 1.65062 7.16777 -90.3123 12.556 3.1304 -0.987307 0.888364 3.08391 -1.12424 -21.6771 3.28225 0.000139289 -1.66441 3.28225 0.000140836 128.229 -48.127 -41.5705 15.9373 -10.9009 -30.7304 -164.117 -59.9915 -175.059 32.7491 -15.0811 -52.6849 -79.1357 -51.027 94.9303 -40.8765 -7.76747 -18.7035 14.6378 68.7577 -14.8926 -7.28847 0.00723834 -6.60102 2.7672 -3.35011 -2.12325 1.23498 -2.74577 4.83006 
37.7709 98.7254 -309.939 128.627 -87.338 129.61 -176.411 0.107905 88.2542 -8.36531 17.8228 2.99463 58.9739 4.65444 10.0617 37.6382 -0.843838 2.30431 175.536 5.57692 89.593 -19.1084 6.71906 0.0761328 61.124 1.88892 17.8054 33.9014 -0.676834 -2.32804 1.50338 7.1928 -90.293 12.5031 2.84743 -0.913975 0.834854 2.80445 -1.0385 -21.7253 2.99036 -0.0152109 -1.71263 2.99037 -0.0152162 127.539 -48.7302 -42.8736 15.8693 -10.7711 -30.0955 -162.439 -64.8059 -172.703 34.4055 -15.3377 -51.2373 -78.2244 -51.4894 96.3037 -40.5989 -6.30756 -19.3926 15.1095 67.8608 -16.5766 -7.12852 0.0883205 -8.67632 4.5494 -3.0567 -2.83581 -1.79742 -2.40312 6.14883 
37.7333 98.7208 -309.924 125.088 -87.4845 126.217 -176.383 0.332406 88.3953 -8.36733 17.64 3.04938 59.0474 4.66339 9.73504 37.3831 -0.840229 2.62035 175.566 5.65343 89.7448 -18.8243 6.64223 0.157614 60.7705 1.87838 17.5124 34.4012 -0.798602 -1.63127 1.44021 7.15289 -90.2812 12.5817 2.72701 -0.879454 0.913291 2.68566 -0.9987 -21.6448 2.86514 -0.0185662 -1.63217 2.86514 -0.0185649 127.767 -50.2441 -43.2254 14.63 -10.4184 -28.811 -156.998 -71.107 -166.399 35.1172 -14.8514 -49.0631 -78.2549 -51.2301 96.2558 -40.6269 -4.82458 -19.5911 17.4383 66.9757 -20.296 -6.37246 0.0426962 -8.18476 6.49801 -3.47228 -4.90449 -5.40447 -2.57482 8.25764 
37.7452 98.7212 -309.874 129.745 -87.4379 130.661 -176.563 0.0811275 88.1523 -8.38081 17.3572 3.08165 59.1539 4.74928 9.67716 37.4512 -0.846024 2.66417 175.468 5.49261 89.5007 -18.8768 6.49247 0.116192 60.5797 1.93639 17.4441 35.4276 -1.00759 -0.743479 1.35203 7.15223 -90.2263 12.5808 2.57804 -0.752374 0.912146 2.54243 -0.86518 -21.6436 2.68489 0.0577686 -1.63092 2.68489 0.0577606 127.851 -51.6405 -43.7259 13.5553 -10.2403 -27.1216 -137.879 -79.4453 -146.762 35.8525 -13.4429 -44.3803 -77.8547 -51.0906 96.856 -40.4598 -3.92263 -19.7594 17.0391 64.9515 -20.9988 -6.89791 0.0834626 -8.77122 8.73573 -3.66143 -5.48623 -9.53698 -2.84403 8.48781 
37.7049 98.7138 -309.853 127.555 -87.7055 128.673 -176.514 0.348059 88.3168 -8.44365 17.4299 3.14078 59.03 4.72619 9.93274 37.7009 -0.858324 2.58265 175.56 5.58468 89.7094 -18.5506 6.73063 0.15703 60.1402 2.00398 17.5081 36.1403 -1.14478 -0.0830988 1.24459 7.09858 -90.1888 12.6862 2.38187 -0.658037 1.01717 2.3506 -0.762283 -21.5355 2.46945 0.0886638 -1.5229 2.46946 0.0886769 127.988 -53.3521 -44.2723 12.6096 -9.91092 -25.3801 -69.1144 -83.2109 -77.8101 34.2466 -11.1321 -39.2206 -77.6544 -50.6867 97.1575 -40.9238 -4.05478 -20.2896 18.0459 66.7066 -21.4407 -9.42569 0.239875 -9.70137 9.53713 -4.01035 -6.56525 -11.6716 -3.06965 8.66747 
37.6468 98.7083 -309.859 129.351 -87.9097 130.529 -176.357 0.405028 88.4299 -8.40624 17.4867 3.04683 58.9913 4.70531 10.0576 37.6615 -0.861844 2.74205 175.715 5.6212 89.8438 -18.3756 6.99016 0.0598395 59.7583 2.11821 17.6359 36.5668 -1.22472 0.405364 1.13428 7.07979 -90.1547 12.7218 2.17894 -0.566938 1.05251 2.15188 -0.662333 -21.4973 2.24855 0.11446 -1.48465 2.24854 0.114458 127.36 -54.0732 -45.4602 12.9015 -9.71052 -23.512 -47.5777 -80.6141 -56.7921 29.281 -6.95262 -30.7847 -77.5045 -50.3105 97.3859 -41.6335 -4.70637 -20.9897 16.5375 68.3749 -18.52 -9.07058 0.160764 -8.59771 11.9418 -4.19136 -6.6229 -16.0676 -3.33991 7.80454 
